<?xml version="1.0" encoding="UTF-8"?>
<svg version="1.1" xmlns="http://www.w3.org/2000/svg" width="512" height="512">
<path d="M0 0 C1.18513184 0.00563965 2.37026367 0.0112793 3.59130859 0.01708984 C28.635318 0.36278411 51.07156373 8.84870571 70.75 24.3125 C71.56637939 25.16618164 72.38275879 26.01986328 73.22387695 26.89941406 C77.55724971 30.49274159 82.3102205 29.98534882 87.703125 29.9140625 C89.28622467 29.92607193 89.28622467 29.92607193 90.90130615 29.93832397 C94.26792968 29.96135409 97.63334457 29.95195537 101 29.9375 C104.35214783 29.93363752 107.70375847 29.93723651 111.05584717 29.95809937 C113.13723615 29.97007183 115.21877612 29.96771484 117.30010986 29.94839478 C131.60407716 30.00281383 142.23058709 35.46619919 152.57421875 45.0859375 C155.10663157 47.6774551 156.97488176 50.16569949 158.75 53.3125 C165.29338711 49.83450668 171.43598116 45.95253477 177.54296875 41.76171875 C179.40946692 40.49278222 181.27600463 39.22390386 183.14257812 37.95507812 C186.03505877 35.98218779 188.92637153 34.00760865 191.81665039 32.03149414 C231.42901592 4.97675282 231.42901592 4.97675282 255.74609375 8.78125 C258.21060188 9.44370978 260.42315082 10.26641225 262.75 11.3125 C263.63816406 11.70308594 264.52632813 12.09367187 265.44140625 12.49609375 C275.34837401 17.36001534 283.94838724 25.27110449 288.75 35.3125 C289.14058594 36.12460937 289.53117187 36.93671875 289.93359375 37.7734375 C294.68369887 49.50899133 294.82241993 64.88268937 290.06640625 76.6484375 C282.62600098 91.70587486 271.36475531 99.77921393 257.75390625 108.921875 C252.9954611 112.12543498 248.32818364 115.44120678 243.6875 118.8125 C242.94806152 119.34915283 242.20862305 119.88580566 241.44677734 120.4387207 C239.21339773 122.06177955 236.98167766 123.68710212 234.75 125.3125 C224.63931209 132.66187495 214.47936905 139.9288933 204.22241211 147.07299805 C199.34989097 150.47283833 194.5125129 153.91477226 189.70825195 157.41040039 C186.06658424 160.05991823 182.41106411 162.68986896 178.75 165.3125 C178.13415039 165.7554541 177.51830078 166.1984082 176.88378906 166.65478516 C144.94054931 189.43512847 109.74850146 199.64862314 70.83398438 200.79321289 C69.5918367 200.8323732 68.34968903 200.87153351 67.06990051 200.91188049 C63.69601914 201.01754998 60.32207457 201.12030738 56.94806099 201.22161031 C53.39641819 201.32886275 49.84488469 201.43962807 46.29333496 201.5499115 C40.33217997 201.73449908 34.37095166 201.91654319 28.40966797 202.09692383 C21.54369715 202.30469872 14.67784063 202.51595766 7.81203794 202.72921187 C1.17367734 202.9353661 -5.46474188 203.13956464 -12.10319519 203.34271049 C-14.91311795 203.4286999 -17.72302219 203.51526127 -20.53291321 203.60228157 C-24.46654263 203.7239527 -28.40025708 203.84271519 -32.33398438 203.96118164 C-33.48340012 203.99701355 -34.63281586 204.03284546 -35.81706238 204.06976318 C-42.63044193 204.27210384 -49.43369377 204.35562554 -56.25 204.3125 C-56.1878833 205.37162598 -56.1878833 205.37162598 -56.12451172 206.45214844 C-55.90580106 210.81778472 -55.95126734 213.69205524 -57.875 217.6875 C-62.06453465 222.3180383 -66.76201081 224.73297419 -72.62817383 226.69091797 C-73.87419876 227.11170624 -75.12022369 227.53249451 -76.40400696 227.96603394 C-77.75496863 228.41239233 -79.105978 228.85860637 -80.45703125 229.3046875 C-81.8653194 229.77702838 -83.27332958 230.25019875 -84.68107605 230.72415161 C-88.38569112 231.96913507 -92.09369674 233.20368755 -95.8026123 234.43579102 C-100.24745313 235.91428342 -104.68843466 237.40431241 -109.12984848 238.89306068 C-112.68805961 240.08567804 -116.24675034 241.27678824 -119.8069458 242.46347046 C-128.28527953 245.2929599 -136.72241045 248.212786 -145.09985352 251.33007812 C-151.26920991 253.25408728 -157.25033007 253.58734574 -163.1875 250.8125 C-170.4762364 244.8625111 -172.48639303 234.17589347 -175.36328125 225.51171875 C-175.85429062 224.04800513 -176.34588625 222.58448807 -176.83802795 221.12115479 C-177.8793697 218.02174899 -178.91735814 214.92125034 -179.95257568 211.8197937 C-182.38267921 204.54036244 -184.83017027 197.26677348 -187.27741241 189.99308968 C-187.81940186 188.38201769 -188.36118524 186.77087636 -188.90276337 185.15966606 C-193.09557303 172.68715183 -197.35748999 160.24098467 -201.7197876 147.8265686 C-202.6149205 145.27868999 -203.50698918 142.72976044 -204.39794922 140.18041992 C-204.8220105 138.96718803 -204.8220105 138.96718803 -205.25463867 137.72944641 C-205.66806519 136.54659309 -205.66806519 136.54659309 -206.08984375 135.33984375 C-207.6658998 130.83130898 -209.24497381 126.32392688 -210.83642578 121.82080078 C-212.07944426 118.30017181 -213.30554432 114.7740815 -214.519104 111.24319458 C-215.15446078 109.40793541 -215.80699535 107.57864965 -216.46044922 105.74975586 C-218.79450534 98.90450308 -220.24373592 92.5694789 -219.25 85.3125 C-216.32224911 79.45699822 -212.55536936 76.54199494 -206.43847656 74.49414062 C-205.47989243 74.16914581 -204.52130829 73.844151 -203.53367615 73.50930786 C-202.49646927 73.16592377 -201.45926239 72.82253967 -200.390625 72.46875 C-199.30544083 72.10272675 -198.22025665 71.73670349 -197.10218811 71.35958862 C-193.57049577 70.17003178 -190.03543898 68.99087039 -186.5 67.8125 C-181.66463137 66.19228668 -176.83041325 64.56865294 -171.99609375 62.9453125 C-170.80537766 62.54639801 -169.61466156 62.14748352 -168.38786316 61.73648071 C-161.56044239 59.44442752 -154.75451512 57.10310293 -147.97265625 54.6796875 C-146.50684872 54.15946918 -145.041029 53.63928523 -143.57519531 53.11914062 C-140.98354082 52.19843957 -138.40079673 51.26015807 -135.81933594 50.31054688 C-129.26400235 47.98774712 -123.24575557 46.24559101 -116.25 47.3125 C-110.0691005 50.28848865 -107.05804609 55.22840015 -104.25 61.3125 C-99.80159046 58.64596396 -97.23616533 56.30307044 -94.5625 51.875 C-78.50419796 26.79346158 -54.30175258 9.24679841 -25.25 2.3125 C-16.80085833 0.56272951 -8.61879302 -0.04322364 0 0 Z M-52.25 50.3125 C-52.89839844 50.8075 -53.54679687 51.3025 -54.21484375 51.8125 C-62.2713 58.19385149 -68.36379094 67.28601722 -72.75 76.5 C-77.1033334 84.24069045 -86.72083293 88.17235565 -94.25 92.3125 C-92.77085229 99.72529064 -90.55699059 106.73292625 -88.109375 113.87890625 C-87.70471008 115.07120346 -87.30004517 116.26350067 -86.88311768 117.4919281 C-86.02799442 120.00819149 -85.17112125 122.52376789 -84.31103516 125.03833008 C-83.01203712 128.83650708 -81.7227116 132.63791114 -80.43359375 136.43945312 C-76.22875389 148.80707689 -71.94458047 161.12173881 -67.25 173.3125 C-49.80624201 173.44187445 -32.39597948 173.07068874 -14.9609375 172.54296875 C-13.59343288 172.5021067 -12.22592618 172.46131384 -10.85841751 172.42058754 C-4.43670013 172.22903983 1.98491934 172.03458024 8.40642035 171.83590907 C15.72335153 171.60958023 23.04049015 171.39333576 30.35797465 171.18568343 C36.08637406 171.02248654 41.81445069 170.85001877 47.54237401 170.67089731 C50.93240236 170.56508468 54.32238615 170.46402774 57.71278763 170.37047386 C101.14023229 169.16068402 133.50281972 159.6818853 168.49462891 133.95898438 C172.07141106 131.34783274 175.69004402 128.79722901 179.3125 126.25 C180.01044678 125.75838379 180.70839355 125.26676758 181.42749023 124.76025391 C184.2354819 122.78306935 187.04503158 120.80810425 189.85449219 118.83300781 C198.61878716 112.6691527 207.34275544 106.45508119 216.01928711 100.16821289 C221.07062331 96.51260477 226.15057311 92.90063466 231.25 89.3125 C232.63935987 88.32947931 234.02868253 87.34640603 235.41796875 86.36328125 C238.48893803 84.19258229 241.57865084 82.05114381 244.67578125 79.91796875 C246.30498458 78.77907069 247.93389804 77.63975784 249.5625 76.5 C250.32175781 75.98501953 251.08101563 75.47003906 251.86328125 74.93945312 C256.64904623 71.56254106 259.38431316 68.71455809 261.75 63.3125 C262.60099583 58.37404386 262.21425081 53.75987018 260.6875 49 C257.53865584 44.63224842 253.90929816 41.03226605 248.75 39.3125 C246.54190594 39.00259342 246.54190594 39.00259342 244.125 38.9375 C243.32835937 38.88851562 242.53171875 38.83953125 241.7109375 38.7890625 C233.88089392 40.17326546 226.72920982 46.20750523 220.2734375 50.6171875 C219.39295242 51.21346451 218.51246735 51.80974152 217.6053009 52.42408752 C213.80368142 54.9996967 210.00882089 57.5851741 206.21426392 60.1711731 C186.79472712 73.40024418 186.79472712 73.40024418 179.01953125 78.06640625 C165.70946505 85.82808619 165.70946505 85.82808619 158.76953125 99.0859375 C155.87779574 108.23756022 147.90936514 114.79420649 139.75 119.3125 C131.07368034 123.18438142 123.06155124 124.46105434 113.64282227 124.47363281 C112.74610809 124.47859772 111.84939392 124.48356262 110.92550659 124.48867798 C107.97246522 124.50322941 105.01947751 124.51008872 102.06640625 124.515625 C100.00666809 124.5213808 97.94692993 124.52713848 95.88719177 124.53289795 C91.57412467 124.54338696 87.2610761 124.54924383 82.94799805 124.55273438 C77.42893412 124.55822456 71.9101162 124.58227277 66.39112949 124.61070633 C62.13855781 124.62935045 57.8860453 124.63453919 53.6334362 124.63607025 C51.59892362 124.63909164 49.56441196 124.64710279 47.52993965 124.66025543 C44.68196069 124.67735817 41.8345821 124.67542568 38.98657227 124.66894531 C37.73403404 124.68276749 37.73403404 124.68276749 36.45619202 124.6968689 C31.14712803 124.65913029 27.45072928 123.83738655 22.75 121.3125 C19.19618146 117.19755221 17.84368598 113.74628672 17.75 108.3125 C18.68786845 103.8887488 20.01576764 101.01091615 23.3125 97.875 C27.73944652 95.03721377 31.27052722 95.16107628 36.41894531 95.15478516 C37.31668167 95.14970444 38.21441803 95.14462372 39.13935852 95.13938904 C41.09332548 95.12867178 43.04730481 95.12005694 45.00128937 95.11326981 C48.09481761 95.10149898 51.1882051 95.08204992 54.28167725 95.06015015 C63.0788504 94.99847921 71.87601032 94.94451039 80.67333984 94.91113281 C86.05092222 94.89017846 91.42825007 94.85486575 96.80568695 94.81037521 C98.85493725 94.79621769 100.90423261 94.78749334 102.95352936 94.78432083 C105.82378218 94.77940801 108.69336088 94.75623915 111.56347656 94.72900391 C112.4083815 94.73201004 113.25328644 94.73501617 114.12379456 94.7381134 C119.90834123 94.65666903 124.21277232 93.65291966 128.61328125 89.59375 C129.33064453 88.71203125 129.33064453 88.71203125 130.0625 87.8125 C130.55363281 87.2246875 131.04476562 86.636875 131.55078125 86.03125 C134.23269068 82.18747101 134.44973273 77.82456966 133.75 73.3125 C131.67680375 68.17134518 128.91910294 64.89323468 124.0176239 62.17098999 C119.29110673 60.38159816 114.23482824 60.77303917 109.24609375 60.80859375 C107.45112206 60.7944619 107.45112206 60.7944619 105.61988831 60.78004456 C101.80891674 60.7514425 97.99857013 60.74831507 94.1875 60.75 C90.37295088 60.74639116 86.55885456 60.73685308 82.74440002 60.70924377 C80.37494124 60.69246996 78.00533319 60.68956801 75.635849 60.70225525 C66.71924168 60.6453247 62.01424446 58.84831457 55.5625 52.5625 C38.26495771 36.48210548 17.55352664 30.2040574 -5.69140625 30.9375 C-23.03466915 31.88119055 -39.18936465 38.91412733 -52.25 50.3125 Z M-134.37524414 82.8309021 C-135.69190063 83.28271347 -135.69190063 83.28271347 -137.03515625 83.74365234 C-138.52680298 84.24945328 -138.52680298 84.24945328 -140.04858398 84.76547241 C-141.12567627 85.13935089 -142.20276855 85.51322937 -143.3125 85.8984375 C-144.414729 86.27481354 -145.51695801 86.65118958 -146.65258789 87.03897095 C-150.18750206 88.24814706 -153.71867584 89.46788438 -157.25 90.6875 C-159.6325881 91.50325987 -162.0153979 92.31837252 -164.3984375 93.1328125 C-168.75519647 94.62565857 -173.1118053 96.11889469 -177.46484375 97.62255859 C-178.78150024 98.07675674 -178.78150024 98.07675674 -180.12475586 98.54013062 C-182.26317785 99.27125204 -182.26317785 99.27125204 -184.25 100.3125 C-182.18905798 108.25428232 -179.75820367 116.0175438 -177.109375 123.78125 C-176.70989655 124.96017319 -176.31041809 126.13909637 -175.89883423 127.35374451 C-174.82445483 130.52112449 -173.74703332 133.68743174 -172.66771698 136.85313034 C-171.99724782 138.82057609 -171.32793406 140.78841116 -170.65899658 142.75637817 C-164.7041411 160.27372379 -158.70452759 177.77548569 -152.625 195.25 C-152.1524176 196.6117334 -152.1524176 196.6117334 -151.67028809 198.00097656 C-150.79110304 200.53169313 -149.90805904 203.06102317 -149.0234375 205.58984375 C-148.76913971 206.32246933 -148.51484192 207.05509491 -148.25283813 207.80992126 C-147.10023739 211.08883441 -145.91492649 214.25652891 -144.25 217.3125 C-134.31114328 214.86206277 -124.64458964 211.55357643 -114.95800781 208.26953125 C-112.1005289 207.30423331 -109.23789632 206.35534114 -106.375 205.40625 C-104.55955603 204.79267116 -102.74443913 204.17812353 -100.9296875 203.5625 C-99.6439534 203.14049316 -99.6439534 203.14049316 -98.33224487 202.70996094 C-97.54697418 202.43958008 -96.76170349 202.16919922 -95.95263672 201.890625 C-95.25967499 201.65762695 -94.56671326 201.42462891 -93.85275269 201.18457031 C-91.88321371 200.34910482 -91.88321371 200.34910482 -91.25 197.3125 C-91.9394956 194.84290412 -92.70770704 192.51036126 -93.58984375 190.109375 C-93.99382889 188.97243698 -93.99382889 188.97243698 -94.40597534 187.81253052 C-95.00548655 186.12675774 -95.60895593 184.44238899 -96.21572876 182.75921631 C-97.92689373 178.01064349 -99.60856929 173.25168626 -101.2890625 168.4921875 C-101.66603775 167.42569977 -102.043013 166.35921204 -102.43141174 165.26040649 C-105.88777059 155.43606427 -109.21364843 145.56979557 -112.5234375 135.6953125 C-113.0676525 134.07363547 -113.6119081 132.45197207 -114.15620422 130.83032227 C-116.34144254 124.31690858 -118.52562201 117.80316839 -120.69528198 111.2845459 C-121.99007868 107.39449675 -123.29162737 103.5067693 -124.59793472 99.62057114 C-125.08492908 98.16715469 -125.56920842 96.71282553 -126.05068588 95.25757217 C-126.7129987 93.25645733 -127.38429713 91.25858097 -128.05786133 89.26123047 C-128.62287102 87.56714554 -128.62287102 87.56714554 -129.19929504 85.83883667 C-130.4799395 82.75962873 -131.07076322 82.0248536 -134.37524414 82.8309021 Z " fill="#000000" transform="translate(219.25,259.6875)"/>
<path d="M0 0 C0.70787659 0.00215515 1.41575317 0.0043103 2.14508057 0.00653076 C12.46529218 0.05697852 22.25394223 0.42670066 32.25 3.3125 C32.93562012 3.50054199 33.62124023 3.68858398 34.32763672 3.88232422 C52.13058965 8.84976303 68.21320046 17.29935439 82.25 29.3125 C83.00869385 29.94792725 83.00869385 29.94792725 83.78271484 30.59619141 C108.05350152 51.03839026 123.85163979 81.29178557 127.06469727 112.87280273 C129.72917648 147.95335718 121.09086567 181.81534751 97.92871094 208.85498047 C75.5291933 234.58974967 46.93120494 249.86547116 13.125 254.0625 C11.50172043 254.17445032 9.87608619 254.25407774 8.25 254.3125 C7.03828125 254.3640625 5.8265625 254.415625 4.578125 254.46875 C-23.89597209 255.28432611 -51.76127025 247.25332265 -74.75 230.3125 C-75.575 229.71050781 -76.4 229.10851562 -77.25 228.48828125 C-89.46120299 219.15375589 -99.38815756 208.15335493 -107.75 195.3125 C-108.37390625 194.384375 -108.9978125 193.45625 -109.640625 192.5 C-117.93719249 179.34508217 -123.34119793 163.64124045 -125.75 148.3125 C-125.93046875 147.31347656 -126.1109375 146.31445312 -126.296875 145.28515625 C-128.31830723 127.56277193 -127.49253386 109.50665739 -122.75 92.3125 C-122.57871582 91.65717285 -122.40743164 91.0018457 -122.23095703 90.32666016 C-114.16354712 60.15718198 -92.0434846 32.93415924 -65.25 17.21875 C-44.3295434 5.82457275 -23.9683015 -0.13132739 0 0 Z M-61.75 53.3125 C-62.53246094 53.9415625 -63.31492187 54.570625 -64.12109375 55.21875 C-81.69380282 69.91293418 -93.23826182 92.61382907 -95.75 115.3125 C-97.35814696 144.18110704 -90.96900852 169.00285137 -71.70678711 191.07592773 C-53.97089494 210.78074928 -30.23840367 221.63634569 -3.9765625 223.59375 C23.12722284 224.28723704 48.00884933 214.41964981 67.66308594 195.86816406 C85.43728248 178.44398246 95.96543678 154.54211208 96.67407227 129.66113281 C96.82174927 101.76897471 86.70968077 78.01131663 67.25 58.3125 C66.37794922 57.33216797 66.37794922 57.33216797 65.48828125 56.33203125 C49.76696898 39.02670767 24.38252223 31.53397753 1.76513672 30.37158203 C-21.16686039 29.83289602 -44.5166846 38.17108994 -61.75 53.3125 Z " fill="#000000" transform="translate(331.75,-0.3125)"/>
<path d="M0 0 C3.70480405 3.26375595 5.48877005 6.22364079 5.8125 11.1875 C5.7196875 12.239375 5.7196875 12.239375 5.625 13.3125 C6.594375 13.498125 7.56375 13.68375 8.5625 13.875 C16.76440802 16.24923653 23.44304823 23.06717323 27.625 30.3125 C31.26292062 37.8603353 33.28000723 45.32344258 31 53.57421875 C29.37575033 57.49707175 27.53917322 59.74293002 23.8125 61.8125 C18.38237697 64.0608319 13.86762303 64.0608319 8.4375 61.8125 C2.68812149 58.66535471 1.28056519 53.55118537 -0.4765625 47.55078125 C-0.92128906 45.94783203 -0.92128906 45.94783203 -1.375 44.3125 C-4.02090014 44.28565321 -6.66653096 44.26573643 -9.3125 44.25 C-10.44461914 44.23743164 -10.44461914 44.23743164 -11.59960938 44.22460938 C-13.52494313 44.21597559 -15.45035581 44.26025667 -17.375 44.3125 C-18.59261493 45.35047629 -18.59261493 45.35047629 -18.86328125 47.53515625 C-18.23066856 51.13345723 -16.52455569 52.22079425 -13.65014648 54.30810547 C-12.96122314 54.78393066 -12.2722998 55.25975586 -11.5625 55.75 C-10.50107788 56.51401123 -10.50107788 56.51401123 -9.41821289 57.29345703 C-7.88806891 58.39470835 -6.35327342 59.48951863 -4.81445312 60.57861328 C-1.44908439 62.97061175 1.87861511 65.41225875 5.20385742 67.85961914 C6.82054778 69.04945112 8.44035372 70.23506514 10.0637207 71.41577148 C20.18535981 78.81738913 29.39810437 86.1738158 31.625 99.3125 C32.41588676 110.24111709 31.47614737 119.76085764 24.3515625 128.4296875 C18.71987378 134.57103131 13.81410904 138.32209155 5.625 140.3125 C5.7075 141.17875 5.79 142.045 5.875 142.9375 C5.50613208 147.91721699 3.26317147 150.87289477 -0.4375 154.125 C-4.54457483 156.64223941 -8.69100029 156.79336689 -13.375 156.3125 C-18.51210953 154.49940252 -21.3441423 151.81548859 -24.375 147.3125 C-25.1875 143.4375 -25.1875 143.4375 -25.375 140.3125 C-26.179375 140.10625 -26.98375 139.9 -27.8125 139.6875 C-36.99771427 136.14232958 -43.27309664 130.58394948 -47.62890625 121.77734375 C-50.41364897 115.03380303 -51.41612723 108.5685194 -50.375 101.3125 C-48.10861668 96.431059 -45.23979088 93.61221932 -40.375 91.3125 C-35.12691386 90.5460135 -30.82124325 90.68141204 -25.9375 92.8125 C-21.81280179 96.83659582 -20.0224965 101.33403847 -18.25 106.75 C-17.65822227 109.46335833 -17.65822227 109.46335833 -15.375 110.3125 C-13.39862586 110.43477926 -11.4176169 110.48799929 -9.4375 110.5 C-7.84615234 110.52126953 -7.84615234 110.52126953 -6.22265625 110.54296875 C-3.17222331 110.52815067 -3.17222331 110.52815067 -0.375 108.3125 C-0.70224462 105.4119227 -0.98050413 103.7384412 -2.9921875 101.56640625 C-3.73726563 101.00824219 -4.48234375 100.45007813 -5.25 99.875 C-6.14332031 99.19695312 -7.03664063 98.51890625 -7.95703125 97.8203125 C-9.09546142 96.98315962 -10.23489839 96.14737516 -11.375 95.3125 C-12.89995953 94.18519331 -14.42468101 93.05756455 -15.94921875 91.9296875 C-18.40664346 90.11428614 -20.86613268 88.30211836 -23.33349609 86.50024414 C-47.93032186 68.52759976 -47.93032186 68.52759976 -50.375 55.3125 C-51.20966762 42.91563344 -50.46549534 33.80980539 -42.125 24 C-37.49389324 19.13963053 -32.77076797 15.44442266 -26.375 13.3125 C-25.30986058 11.11677242 -25.30986058 11.11677242 -24.5 8.5 C-22.44877176 3.0326578 -20.12207043 0.91495775 -15.125 -2 C-9.68495553 -3.36001112 -4.96900558 -2.48450279 0 0 Z " fill="#000000" transform="translate(341.375,49.6875)"/>
</svg>
